<?xml version="1.0" encoding="UTF-8" standalone="no"?>
<!DOCTYPE svg PUBLIC "-//W3C//DTD SVG 1.1//EN" "http://www.w3.org/Graphics/SVG/1.1/DTD/svg11.dtd">
<svg width="100%" height="100%" viewBox="0 0 4000 4000" version="1.1" xmlns="http://www.w3.org/2000/svg" xmlns:xlink="http://www.w3.org/1999/xlink" xml:space="preserve" xmlns:serif="http://www.serif.com/" style="fill-rule:evenodd;clip-rule:evenodd;stroke-linejoin:round;stroke-miterlimit:2;">
    <g>
        <g transform="matrix(1.38964,0,0,1.38964,-779.276,-416.001)">
            <clipPath id="_clip1">
                <path d="M2394.33,2312.04C2412.98,2135.71 2498.05,1919.53 2409.39,1777.68C2314.6,1626.06 2039.51,1552.91 1858.62,1496.31C1828.47,1489.51 1802.29,1480.81 1782.06,1469.14C1676.86,1408.42 1605.67,1294.68 1605.67,1165.13C1605.67,972.236 1763.48,814.423 1956.37,814.423L2302.05,814.423L2421.42,368.916L1965.4,368.916C1653.14,368.916 1381.35,551.096 1251.1,814.423C1198.69,920.383 1169.19,1039.48 1169.19,1165.13C1169.19,1290.78 1198.69,1409.87 1251.1,1515.83C1355.35,1726.58 1550.25,1885.34 1784.01,1940.33C1949.05,1979.15 2120.76,1928.15 2258.32,2035.22C2340.94,2099.52 2394.33,2199.85 2394.33,2312.04Z"/>
            </clipPath>
            <g clip-path="url(#_clip1)">
                <path d="M2258.32,2035.22C2258.19,2035.12 2258.05,2035.01 2257.93,2034.92C2258.06,2035.02 2258.19,2035.12 2258.32,2035.22ZM2207.45,2003.1C2079.69,1939.09 1929.27,1974.5 1784.01,1940.33C1550.25,1885.34 1355.35,1726.58 1251.1,1515.83C1198.69,1409.87 1169.19,1290.78 1169.19,1165.13C1169.19,1039.48 1198.69,920.383 1251.1,814.423C1381.35,551.096 1653.14,368.916 1965.4,368.916L2421.42,368.916L2302.05,814.423L1956.37,814.423C1763.48,814.423 1605.67,972.236 1605.67,1165.13C1605.67,1294.68 1676.86,1408.42 1782.06,1469.14C1795.57,1476.93 1811.73,1483.4 1829.96,1488.86C1826.33,1487.78 1822.79,1486.65 1819.33,1485.48C2029.75,1586.63 2170.9,1782.47 2207.45,2003.1ZM1830.7,1489.09C1830.7,1489.08 1830.69,1489.08 1830.68,1489.08C1830.69,1489.08 1830.7,1489.08 1830.7,1489.09ZM1830.48,1489.02C1830.44,1489.01 1830.39,1488.99 1830.34,1488.98C1830.39,1488.99 1830.43,1489.01 1830.48,1489.02ZM1830.22,1488.94C1830.15,1488.92 1830.07,1488.9 1829.99,1488.87C1830.07,1488.9 1830.15,1488.92 1830.22,1488.94Z" style="fill:url(#_Linear2);"/>
            </g>
        </g>
        <g transform="matrix(1.38964,0,0,1.38964,-779.276,-416.001)">
            <path d="M2257.93,2034.92C2241.56,2022.22 2224.71,2011.77 2207.45,2003.13L2207.45,2003.1C2224.72,2011.76 2241.56,2022.21 2257.93,2034.92ZM1858.62,1496.31C1848.88,1494.11 1839.55,1491.72 1830.7,1489.09C1839.55,1491.72 1848.88,1494.11 1858.62,1496.31ZM1830.68,1489.08C1830.62,1489.06 1830.55,1489.04 1830.48,1489.02C1830.55,1489.04 1830.62,1489.06 1830.68,1489.08ZM1830.34,1488.98C1830.3,1488.97 1830.26,1488.95 1830.22,1488.94C1830.26,1488.95 1830.3,1488.97 1830.34,1488.98ZM1829.99,1488.87C1829.98,1488.87 1829.97,1488.87 1829.96,1488.86C1829.97,1488.87 1829.98,1488.87 1829.99,1488.87Z" style="fill:rgb(178,180,192);fill-rule:nonzero;"/>
        </g>
        <g transform="matrix(1.38964,0,0,1.38964,-779.276,-416.001)">
            <path d="M2394.33,2312.04C2394.33,2199.85 2340.94,2099.52 2258.32,2035.22C2258.19,2035.12 2258.06,2035.02 2257.93,2034.92C2241.56,2022.21 2224.72,2011.76 2207.45,2003.1C2170.9,1782.47 2029.75,1586.63 1819.33,1485.48C1822.79,1486.65 1826.33,1487.78 1829.96,1488.86C1829.97,1488.87 1829.98,1488.87 1829.99,1488.87C1830.07,1488.9 1830.15,1488.92 1830.22,1488.94C1830.26,1488.95 1830.3,1488.97 1830.34,1488.98C1830.39,1488.99 1830.44,1489.01 1830.48,1489.02C1830.55,1489.04 1830.62,1489.06 1830.68,1489.08C1830.69,1489.08 1830.7,1489.08 1830.7,1489.09C1839.55,1491.72 1848.88,1494.11 1858.62,1496.31C2039.51,1552.91 2314.6,1626.06 2409.39,1777.68C2438.74,1824.64 2449.05,1879.75 2449.04,1938.86C2449,2058.3 2406.81,2194.09 2394.33,2312.04Z" style="fill:url(#_Linear3);"/>
        </g>
        <g transform="matrix(1.38964,0,0,1.38964,-779.276,-416.001)">
            <path d="M1858.62,1496.31C2208.73,1605.86 2432.92,1947.22 2394.33,2312.04C2394.33,2504.93 2236.51,2662.75 2043.63,2662.75L1507.5,2662.75L1395.75,3079.78L1388.13,3108.25L2034.6,3108.25C2346.87,3108.25 2618.65,2926.07 2748.9,2662.75C2801.31,2556.79 2830.81,2437.69 2830.81,2312.04C2830.81,2186.39 2801.31,2067.29 2748.9,1961.34C2658.09,1777.75 2498.47,1633.6 2304.31,1563.14C2185.16,1519.91 1986.31,1525.1 1858.62,1496.31Z" style="fill:url(#_Linear4);"/>
        </g>
    </g>
    <defs>
        <linearGradient id="_Linear2" x1="0" y1="0" x2="1" y2="0" gradientUnits="userSpaceOnUse" gradientTransform="matrix(-1261.32,-2183.97,2183.97,-1261.32,2394.66,2311.91)"><stop offset="0" style="stop-color:rgb(0,0,255);stop-opacity:1"/><stop offset="1" style="stop-color:rgb(0,255,255);stop-opacity:1"/></linearGradient>
        <linearGradient id="_Linear3" x1="0" y1="0" x2="1" y2="0" gradientUnits="userSpaceOnUse" gradientTransform="matrix(-1261.32,-2183.97,2183.97,-1261.32,2394.66,2311.91)"><stop offset="0" style="stop-color:rgb(0,2,191);stop-opacity:1"/><stop offset="1" style="stop-color:rgb(0,179,191);stop-opacity:1"/></linearGradient>
        <linearGradient id="_Linear4" x1="0" y1="0" x2="1" y2="0" gradientUnits="userSpaceOnUse" gradientTransform="matrix(-927.107,3937.35,-3937.35,-927.107,2590.36,259.985)"><stop offset="0" style="stop-color:rgb(0,0,255);stop-opacity:1"/><stop offset="1" style="stop-color:rgb(255,0,255);stop-opacity:1"/></linearGradient>
    </defs>
</svg>
